<?xml version="1.0" encoding="utf-8"?>
<!-- Generator: Adobe Illustrator 19.2.1, SVG Export Plug-In . SVG Version: 6.00 Build 0)  -->
<svg version="1.1" id="layer" xmlns="http://www.w3.org/2000/svg" xmlns:xlink="http://www.w3.org/1999/xlink" x="0px" y="0px"
	 viewBox="0 0 652 652" style="enable-background:new 0 0 652 652;" xml:space="preserve">
<style type="text/css">
	.st0{fill:#127A3D;}
</style>
<path class="st0" d="M491.4,302.8c8.3,0,15.3,3.1,21.4,9.5c6.1,6.4,9,13.8,9,22.5c0,8.9-2.9,16.2-8.9,22.3c-5.9,6.2-13,9.2-21.7,9.2
	c-8.6,0-15.6-3-21.4-9.1c-5.9-6.2-8.7-13.5-8.7-22.3c0-8.9,3-16.3,9-22.7C476.1,305.9,483.1,302.8,491.4,302.8 M524.9,300.4
	c-9.1-9.4-20.4-14.2-33.5-14.2c-13.1,0-24.5,4.8-33.6,14.2c-9.1,9.4-13.7,20.9-13.7,34.2c0,13,4.6,24.3,13.7,33.7
	c9.1,9.3,20.5,14.1,33.8,14.1c13.3,0,24.6-4.8,33.6-14.1c9-9.4,13.6-20.8,13.6-33.9C538.7,321.3,534.1,309.9,524.9,300.4 M98,334.6
	c0,8.8-2.9,16-8.8,22.1c-5.9,6.1-12.9,9.1-21.4,9.1c-3.8,0-7.1-0.6-10.5-1.8c-0.1,0-0.2,0-0.3-0.1l-0.4-0.2c-3.6-1.4-7.1-3.8-10-6.9
	c-4-4.2-6.6-9.1-7.8-14.5c-0.6-2.5-0.8-4.9-0.8-7.5c0-8.8,2.9-16.1,8.9-22.5c6-6.3,12.9-9.3,21.1-9.3c8.2,0,15.1,3,21.1,9.4
	C95.1,318.6,98,325.9,98,334.6 M106.5,258.4c-4.1,0-7.6,3-8.1,7.1l0,32.4c-7.1-6.3-15.4-10-24.8-11.1h-0.3c-0.6-0.1-1.2-0.1-1.8-0.2
	c-0.6-0.1-1.2-0.1-1.8-0.2c-1.3,0-2.7,0-4.3,0l-0.4,0.1c-0.6,0-1.3,0-1.9,0.1c-0.7,0-1.6,0.1-2.4,0.2l-0.5,0.1
	c-0.6,0.1-1.2,0.1-1.6,0.2c-0.8,0.1-1.5,0.3-2.3,0.5c-7.3,1.9-14.1,5.5-19.9,11.1l-0.2,0.1c-0.5,0.6-1,1-1.6,1.6l-0.5,0.6
	c-0.3,0.4-0.7,0.8-1,1.2c-1,1.1-2,2.3-2.9,3.7c-0.3,0.4-0.6,0.8-0.9,1.2l-0.2,0.3c-5.3,7.8-7.9,16.9-7.9,26.8c0,0.9,0,1.6,0,2.5
	c0.1,1.6,0.2,3,0.4,4.4l0.3,1.9c0.1,0.6,0.2,1.2,0.4,1.9l0.3,1.5c2,7.9,6.1,15.1,12.1,21.3c2.4,2.5,5,4.7,7.8,6.5l1.3,0.9
	c0.2,0.1,0.4,0.2,0.5,0.3l0.2,0.1c1.1,0.7,2.2,1.3,3.2,1.8c0.8,0.3,1.5,0.7,2.1,1c5.6,2.3,11.8,3.5,18.3,3.5h0.3
	c0.8,0,1.5,0,2.2-0.1c0.3,0,0.7,0,1.1-0.1h0.3l1-0.1c0.2-0.1,0.5-0.1,0.7-0.1c9.4-1,17.7-4.7,24.8-10.8v3.7l0,0.4
	c0.5,3.6,3.4,6.5,7.1,7h1.7h0.4c4.1-0.6,7.1-4.1,7.1-8.2v-107C114.7,262.1,111.1,258.4,106.5,258.4 M144.3,326.3
	c0.8-3.1,2-6.1,3.8-8.8l0.2-0.4c1.1-1.7,2.4-3.3,3.9-4.9c6-6.4,13-9.4,21.3-9.4c8.3,0,15.3,3.1,21.4,9.5c2.8,3,5,6.2,6.6,9.8
	c0.6,1.4,1.1,2.8,1.4,4.3H144.3z M220.7,332.5c0-1.2-0.1-2.4-0.2-3.6c-0.8-7-2.9-13.6-6.5-19.3c-1.9-3.2-4.2-6.2-7-9.1
	c-6.8-7-14.8-11.5-23.9-13.3l-0.7-0.1c-0.7-0.2-1.3-0.3-2-0.3c-1-0.1-2-0.3-2.9-0.3c-0.6-0.1-1.2-0.1-1.9-0.1c-1.5-0.1-3-0.1-4.6,0
	c-8.4,0.4-16.1,2.8-22.9,7.3c-1,0.6-1.9,1.3-2.8,2c-1.4,1.1-2.5,2.1-3.5,3c-0.6,0.5-1.1,1.1-1.8,1.8c-9.1,9.4-13.8,20.9-13.8,34.2
	c0,6.2,1.1,12.2,3.2,17.6c2.2,5.8,5.7,11.2,10.4,16c1.1,1.1,2.2,2.1,3.5,3.3c1.9,1.6,3.8,3,5.7,4.2c1.2,0.7,2.4,1.4,4.1,2.2
	c3.5,1.6,7.2,2.8,11,3.6c0.8,0.2,1.6,0.3,2.4,0.4c0.8,0.1,1.6,0.2,2.3,0.3c0.8,0.1,1.5,0.1,2.3,0.1l0.3,0c0.7,0.1,1.4,0.1,2.1,0.1
	h0.3c0.7,0,1.5,0,2.2-0.1c0.5,0,1,0,1.6-0.1l0.7-0.1c11.3-1,21-5.7,28.9-13.9c1.8-1.9,3.5-3.8,4.9-5.8c0.5-0.7,1.1-1.5,1.6-2.3
	l0.2-0.5c0.4-1,0.6-2,0.6-3c0-4.7-3.8-8.4-8.4-8.4c-2.7,0-5.3,1.4-7,3.7c-1.1,1.8-2.5,3.5-4,5c-5.9,6.2-13,9.2-21.7,9.2
	c-8.6,0-15.6-3-21.5-9.1c-1-1-1.9-2.2-2.8-3.4l-0.3-0.5c-0.7-1-1.3-2.1-2-3.4c-1.4-2.5-2.3-5.4-2.9-8.4h69.8l0.6-0.1
	c3.5-0.8,6.1-3.6,6.5-7.3v-0.2C220.8,333.4,220.8,332.9,220.7,332.5 M432.7,319.9c0-9.4-3.3-17.5-9.8-24.2c-0.7-0.7-1.3-1.3-1.9-1.9
	c-5.4-4.9-11.9-7.6-19.2-8.2c-0.9-0.1-1.8-0.1-2.8-0.1c-8.4,0-15.7,2.8-21.9,8.2c-0.7,0.6-1.3,1.3-2,1.9c-0.5,0.6-1.1,1.1-1.5,1.6
	c-0.5-0.5-1-1.1-1.5-1.6c-0.6-0.7-1.2-1.3-2-1.9c-6.2-5.4-13.5-8.2-22-8.2c-5.8,0-11.1,1.4-15.9,3.9c-0.7,0.4-1.3,0.8-1.8,1.2
	c-1.3-3-4.3-5.1-7.7-5.1c-4.5,0-8.3,3.7-8.3,8.3v79.7c0,4.6,3.7,8.3,8.3,8.3c4.2,0,7.7-3.1,8.3-7.2v-54.5c0-5,1.7-9.3,5.2-12.9
	c3.4-3.6,7.3-5.3,12-5.3c4.7,0,8.6,1.8,12,5.3c1.1,1.2,2.8,4.2,2.8,4.2s2.2,5.1,2.3,7.7c0,0.3,0,0.6,0.1,1l-0.1,54l0,0.3
	c0.4,4.3,4,7.4,8.3,7.4c4.6,0,8.2-3.7,8.2-8.3v-53l0-0.1l0-0.5v-0.2v-0.6c0.2-4.7,1.9-8.5,5.1-12c3.3-3.6,7.3-5.3,12-5.3
	c0.5,0,0.9,0,1.2,0.1c4.1,0.3,7.7,2,10.8,5.3c3.4,3.6,5.1,7.8,5.1,12.9v3.3v50.7v0.3c0.4,4.3,4,7.4,8.3,7.4c4.6,0,8.3-3.7,8.3-8.3
	V319.9 M303.1,354.4c0-11.1-6.6-21.2-16.8-25.8c-3.6-1.6-7.5-2.4-11.4-2.4h-15.3c-0.3,0-0.5,0-0.5,0h-0.3
	c-6.5-0.1-11.8-5.4-11.8-11.9c0-6.6,5.3-11.9,11.9-11.9H292c4.5,0,8.2-3.7,8.2-8.1c0-4.5-3.7-8.2-8.2-8.2h-33.1
	c-15.5,0-28.2,12.6-28.2,28.2c0,15.6,12.7,28.2,28.2,28.2h1.3h14.8c6.6,0,11.9,5.3,11.9,11.9c0,6.6-5.3,11.9-11.8,12h-33.1
	c-4.5,0-8.1,3.6-8.1,8.1c0,4.5,3.6,8.1,8.1,8.1h33.6C290.6,382.4,303.1,369.8,303.1,354.4 M621,354.4c0-11.1-6.6-21.2-16.8-25.8
	c-3.6-1.6-7.4-2.4-11.4-2.4h-15.4c-0.2,0-0.4,0-0.5,0h-0.3c-6.5-0.1-11.8-5.4-11.8-11.9c0-6.6,5.4-11.9,12-11.9h33.1
	c4.5,0,8.2-3.7,8.2-8.1c0-4.5-3.7-8.2-8.2-8.2h-33.1c-15.6,0-28.2,12.6-28.2,28.2c0,15.6,12.7,28.2,28.2,28.2c0.4,0,0.8,0,1.2-0.1
	h14.8c6.5,0,11.9,5.3,11.9,11.9c0,6.6-5.3,11.9-11.8,12h-33.1c-4.5,0-8.1,3.6-8.1,8.1c0,4.5,3.7,8.2,8.1,8.2h33.5
	C608.5,382.4,621,369.8,621,354.4"/>
</svg>
