<svg xmlns="http://www.w3.org/2000/svg" viewBox="0 0 297.89 62.95"><defs><clipPath id="clip-path"><path d="M0 0h297.89v62.95H0z" style="fill:none"/></clipPath><style>.cls-2{clip-path:url(#clip-path)}.cls-3{fill:#ffc20e}</style></defs><g id="Layer_2" data-name="Layer 2"><g id="Layer_1-2" data-name="Layer 1"><g id="NWEA_Yellow_" class="cls-2" data-name="NWEA Yellow ®"><g class="cls-2"><path d="M116.18 1.84a2.54 2.54 0 0 1 2.54 2.54v30.67c0 8 3.87 10.77 9.19 10.77s9.32-2.79 9.32-10.77V4.38a2.54 2.54 0 0 1 2.54-2.54h13.07a2.54 2.54 0 0 1 2.54 2.54v30.67c0 19.24-11.13 27.71-25.65 27.71-8.47 0-15.49-3.27-20-9.32h-.25c-4.47 6.05-11.37 9.32-20 9.32-14.52 0-25.65-8.47-25.65-27.71V4.38a2.54 2.54 0 0 1 2.54-2.54h13.15a2.54 2.54 0 0 1 2.54 2.54v30.67c0 8 3.87 10.77 9.31 10.77s9.2-2.79 9.2-10.77V4.38a2.54 2.54 0 0 1 2.54-2.54ZM178.55 36.54v.24c1.57 6.54 6.54 9.92 13.31 9.92 5 0 8.72-1 11-3.92a1.18 1.18 0 0 1 .93-.43h16.59a1.12 1.12 0 0 1 1 1.5c-4.3 11.5-15.35 19.07-29.62 19.07-18.87 0-32.18-13.31-32.18-31.46S173 0 191.86 0s31.82 13.31 31.82 31.46v4a1.11 1.11 0 0 1-1.11 1.11Zm.36-11.74v.2h26.14v-.2c-2.06-5.68-6.9-8.59-13.19-8.59s-11 2.91-13 8.59M41.27 29.86c0-9.4-4.74-13.39-11.69-13.39s-11.67 4-11.67 13.37v28.67a2.82 2.82 0 0 1-3 2.68H3a2.82 2.82 0 0 1-3-2.68l.08-54A2.82 2.82 0 0 1 3 1.84h11.21a2.82 2.82 0 0 1 2.95 2.68l-.08 4.39h.28C20.14 4.26 24.49 0 34.7 0 55.44 0 59.19 12.53 59 28.42v30.09a2.5 2.5 0 0 1-2.72 2.68h-12a2.82 2.82 0 0 1-2.95-2.68V29.86ZM256.56 63c8.84 0 15.62-4.36 18.53-10.9h.24v6.89a2.43 2.43 0 0 0 2.43 2.44h11.84a2.43 2.43 0 0 0 2.4-2.49V32.08C292 12.47 279 0 260.07 0s-32.2 13.32-32.2 31.47c0 22.16 16 31.48 28.69 31.48m3.51-46c8.24 0 13.81 5.93 13.81 14.52S268.31 46 260.07 46s-13.8-5.93-13.8-14.53S251.84 17 260.07 17M293.08 9.71a4.86 4.86 0 0 0 4.81-4.87 4.83 4.83 0 1 0-9.65.06 4.81 4.81 0 0 0 4.84 4.81m0-.53a4.25 4.25 0 0 1-4.29-4.28 4.28 4.28 0 0 1 4.26-4.37 4.23 4.23 0 0 1 4.28 4.28 4.28 4.28 0 0 1-4.25 4.34" class="cls-3"/><path d="m293.15 5.52 1.17 1.69h1.14l-1.31-1.85a1.49 1.49 0 0 0 1.13-1.5c0-1-.81-1.55-1.89-1.55h-2.22v4.91h.94v-1.7Zm1.16-1.59c0 .48-.36.81-1 .81h-1.19v-1.6h1.19c.64 0 1 .28 1 .8" class="cls-3"/></g></g></g></g></svg>