<svg xmlns="http://www.w3.org/2000/svg" viewBox="0 0 1127.9067 271.37332"><path d="M296.305 86.5508c137.48 0 194.386 41.4492 194.386 143.3902 0 91.25-64.019 137.481-189.64 137.481H80.5781V86.5508Zm-2.371 351.9882c98.367 0 163.574 54.551 163.574 137.52 0 87.671-55.719 132.75-167.129 132.75H80.5781v-270.27ZM.00390625 59.2617V736.07c0 24.879 20.13669375 45.032 45.01949375 45.032H290.379c162.383 0 250.078-71.122 250.078-201.512 0-80.59-46.211-138.68-132.738-167.11 113.781-24.878 165.922-97.191 165.922-186.07 0-139.8592-88.883-212.1795-276.149-212.1795H45.0234C20.1406 14.2305.00390625 34.3789.00390625 59.2617M1148.29 335.422l-137.48 361.519-138.689-361.519Zm-303.419-71.113L761.898 46.2305c-10.675-28.4492-28.437-36.74222-46.234-36.74222-23.695 0-47.391 17.77342-45.035 23.72262L951.535 758.582c8.301 20.137 22.512 29.629 60.455 29.629 37.91 0 52.14-9.492 60.44-29.629l280.9-725.3711c2.37-5.9492-21.33-23.72262-46.21-23.72262-18.98 0-37.93 8.29302-48.6 36.74222l-82.98 218.0785H844.871M1494.19 59.2617V749.09c0 24.89 11.84 36.742 34.37 36.742h10.65c23.72 0 35.56-11.852 35.56-36.742V88.9297h369.81c23.7 0 36.74-11.8711 36.74-34.418v-5.9023c0-21.3477-13.04-34.3789-36.74-34.3789h-405.37c-24.88 0-45.02 20.1484-45.02 45.0312M2545.32 335.422l-137.48 361.519-138.69-361.519Zm-303.42-71.113-82.97-218.0785c-10.68-28.4492-28.44-36.74222-46.23-36.74222-23.7 0-47.4 17.77342-45.02 23.72262l280.89 725.3711c8.3 20.137 22.53 29.629 60.44 29.629 37.95 0 52.15-9.492 60.45-29.629l280.92-725.3711c2.35-5.9492-21.35-23.72262-46.23-23.72262-18.98 0-37.93 8.29302-48.6 36.74222l-82.97 218.0785H2241.9m648.14-218.0785V731.332c0 29.617 15.39 54.5 43.83 54.5h20.16c29.63 0 42.67-15.391 61.65-42.641l416.02-603.332V749.09c0 24.89 9.48 36.742 33.16 36.742h10.69c22.51 0 32-11.852 32-36.742V64c0-32-15.39-54.51172-41.48-54.51172h-5.91c-29.67 0-36.74 9.49222-52.18 30.83202L2965.89 679.172V46.2305c0-24.8789-9.49-36.74222-33.2-36.74222h-10.66c-22.53 0-31.99 11.86332-31.99 36.74222m797.43 349.6485c0 234.691 157.61 399.441 384.02 399.441 183.71 0 285.66-106.672 285.66-151.73 0-41.488-45.07-52.129-47.44-48.602-48.6 84.184-148.14 130.434-240.59 130.434-175.43 0-298.68-135.172-298.68-327.172 0-190.82 126.83-328.3008 301.05-328.3008 113.76 0 212.17 58.0508 247.71 150.4998 1.2 4.75 52.13-5.91 52.13-47.39C4371.33 123.289 4265.85 0 4067.91 0c-223.99 0-380.44 162.41-380.44 395.879m843.68-336.6173V736.07c0 24.879 20.14 45.032 45.02 45.032h458.67c23.72 0 36.74-11.821 36.74-33.172v-7.121c0-22.508-13.02-33.2-36.74-33.2h-423.13V443.27h339c23.71 0 36.74-11.848 36.74-33.149v-4.75c0-22.512-13.03-33.199-36.74-33.199h-339V87.7188h430.25c23.71 0 36.74-10.6602 36.74-32v-7.1094c0-22.5078-13.03-34.3789-36.74-34.3789h-465.79c-24.88 0-45.02 20.1484-45.02 45.0312m937.35 26.0781c215.71 0 337.79 113.8082 337.79 311.7112 0 195.57-125.67 312.929-336.63 312.929h-145.8V85.3398Zm-225.19-26.0781V736.07c0 24.879 20.13 45.032 45.02 45.032h181.33c264.31 0 419.6-141.051 419.6-381.68 0-241.75-158.82-385.1915-425.5-385.1915h-175.43c-24.89 0-45.02 20.1484-45.02 45.0312M1034.21 1150.67l74.77 170.55c65.6-40.66 161.37-65.59 247.97-65.59 83.96 0 111.49 18.33 111.49 48.52 0 95.78-419.81-13.11-419.81 271.59 0 133.82 123.33 236.11 346.35 236.11 99.7 0 209.91-20.96 280.76-60.33l-74.78-169.22c-70.85 39.33-141.68 52.48-204.66 52.48-83.96 0-114.13-23.64-114.13-49.89 0-98.37 418.5 7.88 418.5-274.19 0-131.18-120.71-233.52-351.59-233.52-120.71 0-245.34 30.19-314.87 73.49m1962.71 345.04V1089h-249.28v366.04c0 102.33-41.98 145.63-107.59 145.63-72.15 0-124.63-48.56-124.63-158.79V1089h-249.26v366.04c0 102.33-40.67 145.63-107.57 145.63-73.47 0-125.95-48.56-125.95-158.79V1089h-249.28v711.07h237.46v-74.77c53.8 57.7 128.58 86.55 212.54 86.55 97.07 0 179.72-35.41 229.6-111.47 56.4 70.8 144.29 111.47 246.62 111.47 165.29 0 287.34-95.74 287.34-316.14m648.2-49.86c0 107.56-65.59 167.93-149.56 167.93-83.96 0-149.55-60.37-149.55-167.93 0-108.89 65.59-170.55 149.55-170.55 83.97 0 149.56 61.66 149.56 170.55zm245.33 354.22V1089h-237.44v70.85c-47.22-56.4-116.78-82.67-209.93-82.67-192.85 0-348.96 141.71-348.96 368.67 0 225.63 156.11 366 348.96 366 82.67 0 149.56-23.59 198.11-73.44v61.66h249.26m611.46 11.78v-224.33c-22.34 2.62-38.08 3.96-56.45 3.96-101 0-170.51-51.18-170.51-175.81V1089h-249.3v711.07h237.48v-85.3c51.15 64.3 133.82 97.08 238.78 97.08m831.87-331.89 288.63 56.41c-17.08 59.04-68.22 98.41-137.74 98.41-85.3 0-143-53.82-150.89-154.82zm345.04-150.89 129.89-136.44c-66.94-76.08-166.63-115.45-301.74-115.45-253.23 0-417.19 156.11-417.19 368.67 0 213.85 167.93 366 393.56 366 204.66 0 376.51-129.85 377.85-362.07l-507.75-97.08c27.56-57.74 82.67-85.3 161.37-85.3 69.56 0 115.45 19.71 164.01 61.67m761.01 482.78v-224.33c-22.34 2.62-38.08 3.96-56.45 3.96-101 0-170.51-51.18-170.51-175.81V1089h-249.31v711.07h237.49v-85.3c51.14 64.3 133.81 97.08 238.78 97.08M5010.8 1291.71c-20.98-14.44-48.54-22.3-76.1-22.3-44.6 0-73.47 28.88-73.47 81.34v236.17h161.35v186.31h-161.35l3.44 262.08-254.05-131.11 1.33-556.05c0-182.38 104.96-271.63 287.29-271.63 65.63 0 129.93 13.12 173.2 40.68l-61.64 174.51M7405.47 12.75h941.08c87.17 0 141.29 94.789 96.97 169.859l-468.88 794.243L7405.47 12.75" style="fill:#2b3b51;fill-opacity:1;fill-rule:nonzero;stroke:none" transform="matrix(.13333 0 0 -.13333 0 271.37333)"/><path d="M6763.48 1083.5h1143.81l-474.91 804.48c-43.58 73.82-150.37 73.82-193.95 0l-474.95-804.48" style="fill:#439ad7;fill-opacity:1;fill-rule:nonzero;stroke:none" transform="matrix(.13333 0 0 -.13333 0 271.37333)"/><path d="m6725.12 983.461-471.6-801.34c-44.18-75.07 9.94-169.7304 97.05-169.7304h941.4l567.76 971.0704H6725.12" style="fill:#43b53b;fill-opacity:1;fill-rule:nonzero;stroke:none" transform="matrix(.13333 0 0 -.13333 0 271.37333)"/></svg>